<?xml version="1.0" encoding="utf-8"?>
<!-- Generator: Adobe Illustrator 28.0.0, SVG Export Plug-In . SVG Version: 6.00 Build 0)  -->
<svg version="1.1" id="Layer_1" xmlns="http://www.w3.org/2000/svg" xmlns:xlink="http://www.w3.org/1999/xlink" x="0px" y="0px"
	 viewBox="0 0 450 65.66" style="enable-background:new 0 0 450 65.66;" xml:space="preserve">
<style type="text/css">
	.st0{fill:none;}
	.st1{fill:#FFFFFF;}
</style>
<g id="Layer_2">
	<g>
	</g>
	<g>
	</g>
	<g>
	</g>
	<g>
	</g>
	<g>
	</g>
	<g>
		<rect x="80.94" y="12.42" class="st0" width="398.95" height="40.75"/>
		<path class="st1" d="M109,14.3v6.78h-9.2v27.96h-8.46V21.07h-9.2V14.3H109z"/>
		<path class="st1" d="M152.88,21.42l-7.47,27.61h-9.35l-4.35-17.91l-4.5,17.91h-9.3l-7.52-27.61h8.46l3.91,19.74l4.65-19.74h8.96
			l4.7,19.64l3.86-19.64H152.88z"/>
		<path class="st1" d="M161.37,47.69c-2.16-1.15-3.86-2.8-5.1-4.95c-1.24-2.14-1.86-4.65-1.86-7.52c0-2.84,0.63-5.33,1.88-7.5
			c1.25-2.16,2.97-3.82,5.15-4.97c2.18-1.15,4.62-1.73,7.32-1.73c2.7,0,5.15,0.58,7.32,1.73c2.18,1.16,3.89,2.81,5.15,4.97
			c1.25,2.16,1.88,4.66,1.88,7.5c0,2.84-0.64,5.34-1.9,7.5c-1.27,2.16-3,3.82-5.2,4.97c-2.19,1.16-4.64,1.73-7.35,1.73
			C165.96,49.43,163.53,48.85,161.37,47.69z M172.8,40.32c1.14-1.19,1.71-2.89,1.71-5.1c0-2.21-0.55-3.91-1.66-5.1
			c-1.11-1.19-2.47-1.78-4.08-1.78c-1.65,0-3.02,0.59-4.11,1.76c-1.09,1.17-1.63,2.88-1.63,5.12c0,2.21,0.54,3.91,1.61,5.1
			c1.07,1.19,2.42,1.78,4.03,1.78C170.28,42.1,171.66,41.51,172.8,40.32z"/>
		<path class="st1" d="M196.08,52.59c0,3.4-0.86,5.85-2.57,7.35c-1.72,1.5-4.11,2.25-7.17,2.25h-3.31v-7.17h2.03
			c0.92,0,1.58-0.18,1.98-0.54c0.4-0.36,0.59-0.96,0.59-1.78V21.42h8.46V52.59z M188.19,17.24c-0.94-0.87-1.41-1.95-1.41-3.24
			c0-1.32,0.47-2.42,1.41-3.29c0.94-0.87,2.15-1.31,3.64-1.31c1.45,0,2.65,0.44,3.59,1.31c0.94,0.87,1.41,1.97,1.41,3.29
			c0,1.29-0.47,2.37-1.41,3.24c-0.94,0.87-2.14,1.31-3.59,1.31C190.34,18.55,189.13,18.11,188.19,17.24z"/>
		<path class="st1" d="M228.04,37.25h-19.15c0.13,1.72,0.68,3.03,1.66,3.93c0.97,0.91,2.17,1.36,3.59,1.36
			c2.11,0,3.58-0.89,4.4-2.67h9c-0.46,1.81-1.29,3.45-2.5,4.9c-1.2,1.45-2.71,2.59-4.53,3.41c-1.81,0.82-3.84,1.24-6.09,1.24
			c-2.71,0-5.11-0.58-7.22-1.73c-2.11-1.15-3.76-2.8-4.95-4.95c-1.19-2.14-1.78-4.65-1.78-7.52c0-2.87,0.59-5.38,1.76-7.52
			c1.17-2.14,2.81-3.79,4.92-4.95c2.11-1.15,4.54-1.73,7.27-1.73c2.67,0,5.05,0.56,7.12,1.68c2.08,1.12,3.7,2.72,4.87,4.8
			c1.17,2.08,1.76,4.5,1.76,7.27C228.19,35.57,228.14,36.4,228.04,37.25z M219.53,32.55c0-1.45-0.49-2.6-1.48-3.46
			c-0.99-0.86-2.23-1.29-3.71-1.29c-1.42,0-2.61,0.41-3.59,1.24c-0.97,0.82-1.58,2-1.81,3.51H219.53z"/>
		<path class="st1" d="M237.91,47.69c-2.16-1.15-3.86-2.8-5.1-4.95c-1.24-2.14-1.86-4.65-1.86-7.52c0-2.84,0.63-5.33,1.88-7.5
			c1.25-2.16,2.97-3.82,5.15-4.97c2.18-1.15,4.62-1.73,7.32-1.73c2.7,0,5.15,0.58,7.32,1.73c2.18,1.16,3.89,2.81,5.15,4.97
			c1.25,2.16,1.88,4.66,1.88,7.5c0,2.84-0.64,5.34-1.91,7.5c-1.27,2.16-3,3.82-5.2,4.97c-2.19,1.16-4.64,1.73-7.35,1.73
			C242.5,49.43,240.07,48.85,237.91,47.69z M249.34,40.32c1.14-1.19,1.71-2.89,1.71-5.1c0-2.21-0.55-3.91-1.66-5.1
			c-1.11-1.19-2.47-1.78-4.08-1.78c-1.65,0-3.02,0.59-4.11,1.76c-1.09,1.17-1.63,2.88-1.63,5.12c0,2.21,0.54,3.91,1.61,5.1
			c1.07,1.19,2.42,1.78,4.03,1.78C246.83,42.1,248.2,41.51,249.34,40.32z"/>
		<path class="st1" d="M276.03,22.21c1.45-0.79,3.15-1.19,5.1-1.19c2.28,0,4.34,0.58,6.18,1.73c1.85,1.16,3.31,2.8,4.38,4.95
			c1.07,2.14,1.61,4.63,1.61,7.47c0,2.84-0.54,5.34-1.61,7.5c-1.07,2.16-2.53,3.83-4.38,5c-1.85,1.17-3.91,1.76-6.18,1.76
			c-1.91,0-3.6-0.4-5.07-1.19c-1.47-0.79-2.62-1.81-3.44-3.07v17.02h-8.46V21.42h8.46v3.91C273.44,24.04,274.58,23,276.03,22.21z
			 M282.94,30.2c-1.17-1.2-2.61-1.81-4.33-1.81c-1.68,0-3.11,0.61-4.28,1.83c-1.17,1.22-1.76,2.89-1.76,5c0,2.11,0.58,3.78,1.76,5
			c1.17,1.22,2.6,1.83,4.28,1.83c1.68,0,3.12-0.62,4.3-1.86s1.78-2.91,1.78-5.02C284.69,33.07,284.11,31.41,282.94,30.2z"/>
		<path class="st1" d="M303.02,47.69c-2.16-1.15-3.86-2.8-5.1-4.95c-1.24-2.14-1.86-4.65-1.86-7.52c0-2.84,0.63-5.33,1.88-7.5
			c1.25-2.16,2.97-3.82,5.15-4.97c2.18-1.15,4.62-1.73,7.32-1.73c2.7,0,5.15,0.58,7.32,1.73c2.18,1.16,3.89,2.81,5.15,4.97
			c1.25,2.16,1.88,4.66,1.88,7.5c0,2.84-0.64,5.34-1.91,7.5c-1.27,2.16-3,3.82-5.2,4.97c-2.19,1.16-4.64,1.73-7.35,1.73
			C307.62,49.43,305.18,48.85,303.02,47.69z M314.45,40.32c1.14-1.19,1.71-2.89,1.71-5.1c0-2.21-0.55-3.91-1.66-5.1
			c-1.11-1.19-2.47-1.78-4.08-1.78c-1.65,0-3.02,0.59-4.11,1.76c-1.09,1.17-1.63,2.88-1.63,5.12c0,2.21,0.54,3.91,1.61,5.1
			c1.07,1.19,2.42,1.78,4.03,1.78C311.94,42.1,313.32,41.51,314.45,40.32z"/>
		<path class="st1" d="M353.84,24.27c1.93,2.1,2.89,4.97,2.89,8.63v16.13h-8.41V34.04c0-1.85-0.48-3.28-1.44-4.3
			c-0.96-1.02-2.24-1.53-3.86-1.53c-1.62,0-2.9,0.51-3.86,1.53c-0.96,1.02-1.44,2.46-1.44,4.3v14.99h-8.46V21.42h8.46v3.66
			c0.86-1.22,2.01-2.18,3.46-2.89c1.45-0.71,3.08-1.06,4.9-1.06C349.33,21.12,351.91,22.17,353.84,24.27z"/>
		<path class="st1" d="M390.82,21.42l-17.32,40.72h-9.1l6.33-14.05L359.5,21.42h9.45l6.38,17.27l6.33-17.27H390.82z"/>
		<path class="st1" d="M394.21,48.11c-0.94-0.87-1.41-1.96-1.41-3.24c0-1.32,0.47-2.42,1.41-3.31c0.94-0.89,2.15-1.34,3.64-1.34
			c1.45,0,2.65,0.45,3.59,1.34c0.94,0.89,1.41,2,1.41,3.31c0,1.29-0.47,2.37-1.41,3.24s-2.14,1.31-3.59,1.31
			C396.37,49.43,395.15,48.99,394.21,48.11z"/>
		<path class="st1" d="M419.72,22.21c1.45-0.79,3.15-1.19,5.1-1.19c2.28,0,4.34,0.58,6.18,1.73c1.85,1.16,3.31,2.8,4.38,4.95
			c1.07,2.14,1.61,4.63,1.61,7.47c0,2.84-0.54,5.34-1.61,7.5c-1.07,2.16-2.53,3.83-4.38,5c-1.85,1.17-3.91,1.76-6.18,1.76
			c-1.91,0-3.6-0.4-5.07-1.19c-1.47-0.79-2.62-1.81-3.44-3.07v17.02h-8.46V21.42h8.46v3.91C417.13,24.04,418.27,23,419.72,22.21z
			 M426.62,30.2c-1.17-1.2-2.61-1.81-4.33-1.81c-1.68,0-3.11,0.61-4.28,1.83c-1.17,1.22-1.76,2.89-1.76,5c0,2.11,0.58,3.78,1.76,5
			c1.17,1.22,2.6,1.83,4.28,1.83c1.68,0,3.12-0.62,4.3-1.86s1.78-2.91,1.78-5.02C428.38,33.07,427.79,31.41,426.62,30.2z"/>
		<path class="st1" d="M449.9,12.42v36.61h-8.46V12.42H449.9z"/>
	</g>
	<g>
		<g id="XMLID_721_">
			<g id="XMLID_912_">
				<path class="st1" d="M45.65,59.57c-4.46,0.73-8.67-2.34-11.89-6.23c2.49,2.16,5.41,3.56,8.53,3.41
					c22.07-1.09,16.78-49.69,0-47.77c-3.1,0.35-6.04,1.24-8.53,3.41c3.22-3.89,7.36-6.07,11.89-6.23
					C64.05,5.52,68.6,55.83,45.65,59.57z"/>
				<g id="XMLID_961_">
					<path id="XMLID_963_" class="st1" d="M24.36,32.79c0-16.2,9.11-29.33,20.34-29.33c3.83,0,7.42,1.53,10.48,4.19
						C51.22,2.87,46.13,0,40.58,0c-3.94,0-7.88,1.31-11.39,3.69c1.53-1.39,3.6-2.8,6.29-3.69H22.74C10.18,0,0,14.68,0,32.79
						s10.18,32.79,22.74,32.79h9.39c-14.63-9.57-14-27.59-14-27.59c1.73,15.64,11.12,27.59,22.45,27.59c5.56,0,10.65-2.87,14.6-7.65
						c-3.06,2.66-6.64,4.19-10.48,4.19C33.46,62.12,24.36,48.99,24.36,32.79z"/>
				</g>
			</g>
		</g>
		<path class="st1" d="M61.89,20.03"/>
		<path class="st1" d="M62.53,34.19"/>
	</g>
</g>
</svg>
